<svg width="156" height="150" viewBox="0 0 156 150" fill="none" xmlns="http://www.w3.org/2000/svg">
<path d="M121 30C161 60.3333 161 90.6667 121 121" stroke="#E84142" stroke-width="10"/>
<rect x="96.5" y="0.5" width="31" height="149" fill="#E84142" stroke="#E84142"/>
<rect x="64.5" y="0.5" width="31" height="149" fill="#E35354" stroke="#E84142"/>
<rect x="32.5" y="0.5" width="31" height="149" fill="#E66262" stroke="#E84142"/>
<rect x="0.5" y="0.5" width="31" height="149" fill="#DF696A" stroke="#E84142"/>
<path d="M96.0373 41.7714H31.8243V100.133H96.0373V41.7714Z" fill="white"/>
<path d="M63.9658 24.5C92.3897 24.5002 115.431 47.5267 115.431 75.9307C115.431 104.335 92.3898 127.361 63.9658 127.361C35.5419 127.361 12.5 104.335 12.5 75.9307C12.5001 47.5266 35.542 24.5 63.9658 24.5ZM65.4443 43.2305C64.6287 42.8158 63.6669 42.7905 62.833 43.1533L62.668 43.2305C62.2164 43.4604 61.8547 43.8645 61.4902 44.3926C61.3072 44.6578 61.1126 44.9702 60.8984 45.332L60.1875 46.5674L35.2861 90.4297C34.7672 91.3404 34.3625 92.0512 34.0947 92.6279C33.8615 93.1303 33.7064 93.5822 33.6885 94.0225L33.6895 94.2109V94.2168C33.7464 95.1266 34.1918 95.962 34.9277 96.5039L35.0791 96.6084L35.0811 96.6104C35.5042 96.8809 36.0248 96.9909 36.6553 97.0439C37.2876 97.0971 38.1047 97.0967 39.1553 97.0967H49.2402C51.4388 97.0967 52.6914 97.1005 53.7793 96.8408L53.9941 96.7852L54.0039 96.7832C55.2408 96.4158 56.3692 95.7632 57.3076 94.8662C57.9635 94.2417 58.478 93.4674 59.1738 92.2803L59.9424 90.9463L59.9756 90.8867L59.9775 90.8857L73.0557 67.7812C74.2034 65.7773 74.8236 64.6863 75.0996 63.5293C75.399 62.2913 75.399 60.9861 75.0996 59.748H75.0986C74.893 58.8859 74.4896 58.0596 73.8242 56.8691L73.0693 55.542L73.043 55.4961L67.9238 46.5664C67.3987 45.6432 66.9881 44.923 66.6221 44.3926C66.3033 43.9307 65.9868 43.5637 65.6104 43.3252L65.4443 43.2305ZM83.2959 74.7568C82.4807 74.3422 81.5295 74.3168 80.6973 74.6797L80.5322 74.7568L80.5283 74.7588C80.0878 74.9874 79.7311 75.3807 79.3682 75.8975C79.1858 76.157 78.9924 76.4633 78.7783 76.8174L78.0674 78.0254L70.8545 90.4004V90.4014L70.8291 90.4434V90.4443C70.3059 91.3469 69.8972 92.051 69.627 92.623C69.3915 93.1214 69.2352 93.5714 69.2168 94.0107V94.1982L69.2178 94.2041C69.2783 95.1716 69.7782 96.0716 70.6064 96.6084V96.6074C71.0262 96.8808 71.5528 96.9912 72.1865 97.0439C72.825 97.0971 73.651 97.0967 74.708 97.0967H89.1582C90.215 97.0967 91.0418 97.0968 91.6826 97.042C92.3207 96.9874 92.8507 96.8739 93.2764 96.5938L93.2754 96.5928C94.0971 96.059 94.6163 95.1618 94.6631 94.1855C94.6877 93.6962 94.5256 93.2019 94.2666 92.6523C94.1365 92.3763 93.973 92.0697 93.7803 91.7246L93.1172 90.5684L93.1162 90.5654L93.0127 90.3887L93.0117 90.3867L85.7734 78.0117L85.7725 78.0098L85.6895 77.8711C85.1855 77.0194 84.7908 76.3498 84.4375 75.8545C84.1288 75.4216 83.8216 75.0765 83.4561 74.8477L83.2959 74.7568Z" fill="#E84142" stroke="#E84142"/>
</svg>
