<svg width="156" height="150" viewBox="0 0 156 150" fill="none" xmlns="http://www.w3.org/2000/svg">
<path d="M121 30C161 60.3333 161 90.6667 121 121" stroke="#0052FF" stroke-width="10"/>
<rect x="96.5" y="0.5" width="31" height="149" fill="#0052FF" stroke="#0052FF"/>
<rect x="64.5" y="0.5" width="31" height="149" fill="#0D5BFF" stroke="#0052FF"/>
<rect x="32.5" y="0.5" width="31" height="149" fill="#2068FF" stroke="#0052FF"/>
<rect x="0.5" y="0.5" width="31" height="149" fill="#3A79FF" stroke="#0052FF"/>
<path d="M64 127C92.7188 127 116 103.719 116 75C116 46.2812 92.7188 23 64 23C35.2812 23 12 46.2812 12 75C12 103.719 35.2812 127 64 127Z" fill="#0052FF"/>
<path d="M64.2301 111.136C84.3847 111.136 100.723 94.8256 100.723 74.7062C100.723 54.5868 84.3847 38.2769 64.2301 38.2769C45.1087 38.2769 29.4222 52.9576 27.8643 71.644H76.0995V77.7684H27.8643C29.4222 96.4547 45.1087 111.136 64.2301 111.136Z" fill="white"/>
</svg>
