<svg width="156" height="150" viewBox="0 0 156 150" fill="none" xmlns="http://www.w3.org/2000/svg">
<path d="M121 30C161 60.3333 161 90.6667 121 121" stroke="#439AFE" stroke-width="10"/>
<rect x="96" width="32" height="150" fill="#439AFE"/>
<rect x="64" width="32" height="150" fill="#4EA1FF"/>
<rect x="32" width="32" height="150" fill="#63ACFF"/>
<rect width="32" height="150" fill="#79B8FF"/>
<g clip-path="url(#clip0_4_214)">
<path d="M63.5 126.52C88.0767 126.52 108 106.033 108 80.76C108 55.4874 88.0767 35 63.5 35C38.9233 35 19 55.4874 19 80.76C19 106.033 38.9233 126.52 63.5 126.52Z" stroke="white" stroke-width="10"/>
</g>
<g clip-path="url(#clip1_4_214)">
<path d="M63.5 126.52C88.0767 126.52 108 106.033 108 80.76C108 55.4874 88.0767 35 63.5 35C38.9233 35 19 55.4874 19 80.76C19 106.033 38.9233 126.52 63.5 126.52Z" stroke="#F5F0F0" stroke-width="10"/>
<path d="M51 59.26C52.6563 59.26 53.807 59.6735 54.5469 60.4133C55.2866 61.1532 55.7002 62.304 55.7002 63.9602V67.1262C54.2461 66.4313 52.6423 66.0598 51 66.0598C48.1093 66.0598 45.3371 67.2083 43.293 69.2522C41.2488 71.2963 40.0996 74.0693 40.0996 76.9602C40.0997 79.851 41.2489 82.6231 43.293 84.6672C45.3371 86.7113 48.1092 87.8596 51 87.8596C52.6425 87.8596 54.246 87.4874 55.7002 86.7922V89.9602C55.7002 91.6161 55.2864 92.7663 54.5469 93.5061C53.807 94.2459 52.6563 94.6604 51 94.6604H38.5V59.26H51ZM56.7002 68.8684C57.1605 69.1926 57.5965 69.5558 58 69.9592C59.8566 71.8158 60.9004 74.3346 60.9004 76.9602C60.9003 79.5858 59.8566 82.1036 58 83.9602C57.5966 84.3635 57.1603 84.7259 56.7002 85.05V68.8684ZM41.0996 76.9602C41.0996 74.3346 42.1434 71.8158 44 69.9592C45.8566 68.1029 48.3745 67.0598 51 67.0598C52.6559 67.0598 54.2688 67.4752 55.7002 68.2473V85.6711C54.2686 86.4435 52.6561 86.8596 51 86.8596C48.3744 86.8596 45.8566 85.8168 44 83.9602C42.1434 82.1036 41.0997 79.5858 41.0996 76.9602Z" fill="#F5F0F0" stroke="#F5F0F0"/>
<path d="M57.7604 100.86H70.2398C71.1004 100.86 72.021 101.288 73.0064 102.273L78.3932 107.66H49.607L54.9938 102.273C55.9177 101.349 56.7844 100.915 57.5982 100.865L57.7604 100.86Z" fill="#F5F0F0" stroke="#F5F0F0"/>
</g>
<g clip-path="url(#clip2_4_214)">
<path d="M65.5 126.52C90.0767 126.52 110 106.033 110 80.76C110 55.4874 90.0767 35 65.5 35C40.9233 35 21 55.4874 21 80.76C21 106.033 40.9233 126.52 65.5 126.52Z" stroke="#EBEAEA" stroke-width="10"/>
<path d="M68.6 58.76C75.5333 58.76 80.7333 61.36 84.2 66.56C87.6667 71.76 89.4 76.96 89.4 82.16C85.9333 90.8267 79.8667 95.16 71.2 95.16H66V87.36H71.2C74.6667 87.36 77.2667 85.6267 79 82.16C77.2667 78.6933 74.6667 76.96 71.2 76.96H66V58.76H68.6Z" fill="#EBEAEA"/>
<path d="M59.76 100.36H72.24C73.28 100.36 74.32 100.88 75.36 101.92L81.6 108.16H50.4L56.64 101.92C57.68 100.88 58.72 100.36 59.76 100.36Z" fill="#EBEAEA"/>
</g>
<g clip-path="url(#clip3_4_214)">
<path d="M65.5 126.52C90.0767 126.52 110 106.033 110 80.76C110 55.4874 90.0767 35 65.5 35C40.9233 35 21 55.4874 21 80.76C21 106.033 40.9233 126.52 65.5 126.52Z" stroke="#E0DFDF" stroke-width="10"/>
</g>
<defs>
<clipPath id="clip0_4_214">
<rect width="32" height="128" fill="white" transform="translate(0 17)"/>
</clipPath>
<clipPath id="clip1_4_214">
<rect width="32" height="128" fill="white" transform="translate(32 17)"/>
</clipPath>
<clipPath id="clip2_4_214">
<rect width="32" height="128" fill="white" transform="translate(64 17)"/>
</clipPath>
<clipPath id="clip3_4_214">
<rect width="32" height="128" fill="white" transform="translate(96 17)"/>
</clipPath>
</defs>
</svg>
