<svg width="156" height="150" viewBox="0 0 156 150" fill="none" xmlns="http://www.w3.org/2000/svg">
<path d="M121 30C161 60.3333 161 90.6667 121 121" stroke="#232323" stroke-width="10"/>
<rect x="96.5" y="0.5" width="31" height="149" fill="#232323" stroke="#232323"/>
<rect x="64.5" y="0.5" width="31" height="149" fill="#2A2A2A" stroke="#232323"/>
<rect x="32.5" y="0.5" width="31" height="149" fill="#323232" stroke="#232323"/>
<rect x="0.5" y="0.5" width="31" height="149" fill="#424242" stroke="#232323"/>
<path d="M63.9575 23H64.0425C92.7329 23 116 45.6555 116 73.5918V76.4082C116 104.344 92.7329 127 64.0425 127H63.9575C35.2671 127 12 104.344 12 76.4082V73.5918C12 45.6555 35.2671 23 63.9575 23Z" fill="#232323"/>
<path d="M85.6422 62.1041C85.4762 62.2826 85.2687 62.4214 85.0405 62.5008C84.8122 62.5999 84.5632 62.6396 84.3142 62.6396H37.3155C35.6555 62.6396 34.8047 60.6563 35.9667 59.4663L43.6857 51.6321C43.8517 51.4536 44.0592 51.3148 44.3082 51.2156C44.5365 51.1165 44.7855 51.0768 45.0345 51.0768H92.22C93.9007 51.0768 94.7307 53.0799 93.548 54.2699L85.6422 62.1041ZM85.6422 97.1298C85.2895 97.4669 84.8122 97.6653 84.3142 97.6653H37.3155C35.6555 97.6653 34.8047 95.7216 35.9667 94.5713L43.6857 86.9156C43.8517 86.7371 44.08 86.5983 44.3082 86.5189C44.5365 86.4198 44.7855 86.3801 45.0345 86.3801H92.22C93.9007 86.3801 94.7307 88.3436 93.548 89.4939L85.6422 97.1298ZM85.6422 69.264C85.2895 68.9268 84.8122 68.7284 84.3142 68.7284H37.3155C35.6555 68.7284 34.8047 70.6721 35.9667 71.8224L43.6857 79.4781C43.8517 79.6566 44.08 79.7954 44.3082 79.8748C44.5365 79.9739 44.7855 80.0136 45.0345 80.0136H92.22C93.9007 80.0136 94.7307 78.0501 93.548 76.8998L85.6422 69.264Z" fill="url(#paint0_linear_12_71)"/>
<defs>
<linearGradient id="paint0_linear_12_71" x1="39.0178" y1="98.2467" x2="88.1017" y2="48.2509" gradientUnits="userSpaceOnUse">
<stop stop-color="#CF41E8"/>
<stop offset="1" stop-color="#10F2B0"/>
</linearGradient>
</defs>
</svg>
